<svg height="512" viewBox="0 0 128 128" width="512" xmlns="http://www.w3.org/2000/svg"><g id="Circle_Grid" data-name="Circle Grid"><circle cx="64" cy="64" fill="#69b0ee" r="64"/></g><g id="icon"><path d="m44.943 92.782h37.788v2.606h-37.788z" fill="#eeefee"/><path d="m79.188 70.396h2.607v34.487h-2.607z" fill="#eeefee" transform="matrix(.945 -.328 .328 .945 -24.308 31.277)"/><circle cx="73.801" cy="69.906" fill="#414451" r="5.025"/><path d="m30.258 86.337h34.487v2.607h-34.487z" fill="#eeefee" transform="matrix(.328 -.945 .945 .328 -50.874 103.742)"/><circle cx="54.192" cy="69.906" fill="#414451" r="5.025"/><path d="m92.552 42.9v.88a28.55 28.55 0 0 1 -28.552 28.546 28.716 28.716 0 0 1 -20.2-8.363 28.471 28.471 0 0 1 -8.363-20.185v-.878z" fill="#575b6d"/><path d="m84.412 42.9v.88a28.542 28.542 0 0 1 -24.478 28.25 28.536 28.536 0 0 1 -24.493-28.25v-.88z" fill="#62667c"/><circle cx="85.92" cy="103.508" fill="#575b6d" r="4.492"/><circle cx="85.92" cy="103.508" fill="#bbbbcd" r="2.236"/><circle cx="41.861" cy="103.508" fill="#575b6d" r="4.492"/><circle cx="41.861" cy="103.508" fill="#bbbbcd" r="2.236"/><path d="m95.127 42.157c0 1.31-.76 2.372-1.7 2.372h-58.856c-.938 0-1.7-1.062-1.7-2.372 0-1.31.76-2.372 1.7-2.372h58.858c.937-.001 1.698 1.061 1.698 2.372z" fill="#414451"/><path d="m81.553 32.609a5.162 5.162 0 0 1 -2.475 3.458 1.646 1.646 0 0 1 -.79.209 1.556 1.556 0 0 1 -.73-.179 1.333 1.333 0 0 1 -.537-.462 1.285 1.285 0 0 1 .477-1.863 2.463 2.463 0 0 0 1.1-1.55 3.79 3.79 0 0 0 -1.416-2.788 6.263 6.263 0 0 1 -2.188-4.934 6.249 6.249 0 0 1 2.34-4.189 2.09 2.09 0 0 1 .239-.149 1.616 1.616 0 0 1 1.863.328 1.263 1.263 0 0 1 -.179 1.893 3.667 3.667 0 0 0 -1.3 2.311 3.89 3.89 0 0 0 1.431 2.922c1.688 1.669 2.419 3.353 2.165 4.993z" fill="#dbd8dd"/><path d="m67.272 32.609a5.21 5.21 0 0 1 -2.472 3.458 1.694 1.694 0 0 1 -.79.209 1.557 1.557 0 0 1 -.73-.179 1.336 1.336 0 0 1 -.537-.462 1.281 1.281 0 0 1 .462-1.863 2.461 2.461 0 0 0 1.118-1.55c.134-1-.7-2.072-1.416-2.788a6.281 6.281 0 0 1 -2.207-4.934 6.308 6.308 0 0 1 2.341-4.189.751.751 0 0 1 .238-.134 1.585 1.585 0 0 1 1.863.313 1.252 1.252 0 0 1 -.179 1.893 3.607 3.607 0 0 0 -1.282 2.311 3.918 3.918 0 0 0 1.419 2.921c1.68 1.67 2.411 3.354 2.172 4.994z" fill="#dbd8dd"/><path d="m52.976 32.609a5.163 5.163 0 0 1 -2.476 3.458 1.646 1.646 0 0 1 -.79.209 1.558 1.558 0 0 1 -.73-.179 1.332 1.332 0 0 1 -.536-.462 1.285 1.285 0 0 1 .477-1.863 2.41 2.41 0 0 0 1.1-1.55 3.79 3.79 0 0 0 -1.417-2.788 6.263 6.263 0 0 1 -2.188-4.934 6.25 6.25 0 0 1 2.341-4.189.759.759 0 0 1 .243-.135 1.585 1.585 0 0 1 1.863.313 1.263 1.263 0 0 1 -.179 1.893 3.667 3.667 0 0 0 -1.3 2.311 3.888 3.888 0 0 0 1.431 2.922c1.685 1.67 2.414 3.354 2.161 4.994z" fill="#dbd8dd"/><g fill="#eeefee"><path d="m80.122 32.609a5.162 5.162 0 0 1 -2.475 3.458.212.212 0 0 1 -.089.03 1.333 1.333 0 0 1 -.537-.462 1.285 1.285 0 0 1 .477-1.863 2.463 2.463 0 0 0 1.1-1.55 3.79 3.79 0 0 0 -1.416-2.788 6.263 6.263 0 0 1 -2.188-4.934 6.249 6.249 0 0 1 2.34-4.189 2.09 2.09 0 0 1 .239-.149 1.337 1.337 0 0 1 .432.328 1.263 1.263 0 0 1 -.179 1.893 3.667 3.667 0 0 0 -1.3 2.311 3.888 3.888 0 0 0 1.431 2.922c1.688 1.669 2.419 3.353 2.165 4.993z"/><path d="m65.841 32.609a5.163 5.163 0 0 1 -2.475 3.458.212.212 0 0 1 -.09.03 1.336 1.336 0 0 1 -.537-.462 1.281 1.281 0 0 1 .462-1.863 2.461 2.461 0 0 0 1.118-1.55c.134-1-.7-2.072-1.416-2.788a6.281 6.281 0 0 1 -2.203-4.934 6.308 6.308 0 0 1 2.341-4.189.751.751 0 0 1 .238-.134 1.114 1.114 0 0 1 .432.313 1.252 1.252 0 0 1 -.179 1.893 3.675 3.675 0 0 0 -1.282 2.311 3.888 3.888 0 0 0 1.431 2.922c1.668 1.669 2.399 3.353 2.16 4.993z"/><path d="m51.545 32.609a5.118 5.118 0 0 1 -2.475 3.458.212.212 0 0 1 -.09.03 1.332 1.332 0 0 1 -.536-.462 1.285 1.285 0 0 1 .477-1.863 2.41 2.41 0 0 0 1.1-1.55 3.79 3.79 0 0 0 -1.417-2.788 6.263 6.263 0 0 1 -2.188-4.934 6.25 6.25 0 0 1 2.341-4.189.759.759 0 0 1 .243-.135 1.111 1.111 0 0 1 .432.313 1.263 1.263 0 0 1 -.179 1.893 3.667 3.667 0 0 0 -1.3 2.311 3.941 3.941 0 0 0 1.431 2.922c1.684 1.67 2.416 3.354 2.161 4.994z"/></g></g></svg>