<svg enable-background="new 0 0 140 140" height="512" viewBox="0 0 140 140" width="512" xmlns="http://www.w3.org/2000/svg"><circle cx="70" cy="70" fill="#dbd8dd" r="64"/><path d="m69.9999847 134.000061c31.2352295 0 57.2286377-22.3815994 62.8562622-51.9785233l-58.1078491-58.107788c-2.539978-2.8099365-6.9500122-2.8099365-9.5 0-1.5599976 1.7200928-3.2700195 3.8399658-4.9799805 6.3299561.0099487-.0200195.0299683-.0498047.039978-.0698242-.0900269.119873-.1799927.2597656-.2700195.3898926-.1699829.2600098-.3399658.5200195-.5199585.7900391-.2700195.4099121-.5400391.8400879-.8099976 1.2700195-.1500244.25-.3000488.4899902-.460022.7399902-.4000244.6699219-.8099976 1.369873-1.2000122 2.0898438-.0999756.1601562-.1799927.3400879-.2700195.5-.3199463.5900879-.6399536 1.2001953-.9499512 1.8200684-.1400146.2700195-.2700195.5400391-.4000244.8200684-.2800293.5698242-.5499878 1.1499023-.8200073 1.75-.1199951.2700195-.2399902.5300293-.3599854.8100586-.3400269.7998047-.6799927 1.6098633-1.0100098 2.4499512-.0200195.0700684-.0499878.1398926-.0800171.2099609-.3599854.9299316-.6999512 1.8898926-1.0199585 2.880127-.0800171.2299805-.1600342.4697266-.2300415.7099609-.25.7700195-.4899902 1.5600586-.7199707 2.3598633-.0800171.2900391-.1600342.5700684-.2299805.8601074-.2400513.8798828-.460022 1.7700195-.6700439 2.6899414-.039978.1799316-.0899658.3601074-.1300049.5500488-.25 1.1398926-.4799805 2.2998047-.6900024 3.4899902-.0199585.1298828-.039978.2600098-.0599976.3898926-.1699829 1.0400391-.3200073 2.1000977-.4599609 3.1899414-.0400391.3100586-.0700073.6201172-.1100464.9301758-.1099854.9799805-.1999512 1.9699707-.2799683 2.9899902-.0200195.3000488-.039978.5900879-.0599976.8898926-.0900269 1.3000488-.1500244 2.630127-.1799927 4-.0700073 3.9399414.1499634 7.6201172.5799561 11.0700684l-2.1599731 2.1599121-8.4299927 1c-.5700073.0600586-1.0999756.3200684-1.5.7299805l-11.5900286 11.5900877c-1 1-1 2.6101074 0 3.6101074l6.8900166 6.8999023c.0168457.0168457.0368652.027832.0540161.0441895l26.0501099 26.0500565c3.8225708.7121582 7.7584838 1.1020507 11.7874755 1.1020507z" opacity=".1"/><path d="m91.6775589 69.7418976c-.4187698-23.4981919-10.0670853-38.2664166-16.9261704-45.8321896-2.5444183-2.8065319-6.955925-2.8065319-9.5003433 0-6.8590889 7.565773-16.5074005 22.3339977-16.9261742 45.8321915-.4381905 24.5915756 9.9891281 39.3609848 17.1575508 46.5786362 2.4824371 2.4993973 6.5551453 2.4993973 9.03759 0 7.168419-7.2176533 17.5957414-21.9870625 17.1575471-46.5786381z" fill="#dd584d"/><path d="m83.973671 103.5297241c-3.0445786 5.6313019-6.5229797 9.8407135-9.4551315 12.7888489-2.4822464 2.4982224-6.5550995 2.4982224-9.0373917 0-7.1656303-7.213829-17.5927505-21.9869614-17.1589737-46.5766754.3213501-18.1792145 6.1775589-31.1368256 11.9855728-39.5717201-4.5387497 8.234066-8.3946915 19.4966736-8.6598015 34.1653709-.4337769 24.5897141 9.9933434 39.3628464 17.1589775 46.5766678 2.4822845 2.4983292 6.5551453 2.4983292 9.037384 0 1.9038773-1.911911 4.0326996-4.3619843 6.1293641-7.3824921z" fill="#cd5248"/><ellipse cx="70.001" cy="70" fill="#344d5b" rx="12.884" ry="16.212"/><path d="m82.8892059 69.9990158c0 1.1889038-.1044388 2.3536835-.3052673 3.470314-1.2531815-7.2861023-6.410553-12.7487411-12.5800781-12.7487411-6.1695137 0-11.3268356 5.4626389-12.5880585 12.7487411-.192791-1.1166306-.297226-2.2814102-.297226-3.470314 0-8.9491348 5.7678566-16.2111092 12.8852844-16.2111092 7.1094437 0 12.8853455 7.2619744 12.8853455 16.2111092z" fill="#19282f"/><path d="m66.2210159 36.2886238c-.638237.638237-.638237 1.6729774.0000305 2.3112411l30.2980194 30.2980232 2.3112106-2.3112183-30.2980117-30.2980193c-.6382675-.6382637-1.6730423-.6382332-2.3112488-.0000267z" fill="#e7a14e"/><path d="m105.6589508 65.9918137-8.4207153-.9971924-4.1935959-4.1935883-2.3112106 2.3112144 4.1935883 4.1935921.9971924 8.4207153c.0674744.56987.3248367 1.1004105.7306137 1.5061874l11.5908432 11.5908432c.9977875.9977875 2.6155701.997818 3.6133575.0000229l6.8969803-6.8969803c.9977951-.9977875.9977646-2.6155701-.0000305-3.6133575l-11.5908432-11.5908432c-.4057694-.4057769-.9363099-.6631393-1.5061799-.7306136z" fill="#4da0dc"/><path d="m77.7508316 54.2665787c-.638237-.638237-1.6729736-.638237-2.3112411.0000305l-30.2980195 30.2980194 2.3112144 2.3112106 30.2980156-30.2980156c.6382676-.6382675.6382371-1.6730384.0000306-2.3112449z" fill="#e7a14e"/><path d="m48.0476456 93.7045135.9971886-8.420723 4.1935921-4.1935883-2.3112144-2.3112183-4.1935922 4.1935961-8.4207191.9971848c-.5698738.0674744-1.1004105.3248444-1.5061836.7306137l-11.5908433 11.5908431c-.9977894.9977951-.997818 2.6155777-.0000286 3.6133652l6.8969784 6.8969803c.9977913.9977875 2.6155739.9977646 3.6133652-.0000305l11.5908432-11.5908432c.4057731-.4057694.6631355-.9363099.7306137-1.5061799z" fill="#4da0dc"/></svg>