<svg height="512" viewBox="0 0 128 128" width="512" xmlns="http://www.w3.org/2000/svg"><g id="Circle_Grid" data-name="Circle Grid"><circle cx="64" cy="64" fill="#3b5059" r="64"/></g><g id="icon"><path d="m58.355 90.755a39.725 39.725 0 0 1 -18.494-4.568 5.947 5.947 0 0 1 -3.187-5.273v-33.828a5.947 5.947 0 0 1 3.187-5.273 39.725 39.725 0 0 1 18.494-4.568h44.693a5.129 5.129 0 0 1 5.129 5.129v43.252a5.129 5.129 0 0 1 -5.129 5.129z" fill="#f6b863"/><path d="m44.693 60.75v6.51h-3.5a22.329 22.329 0 0 0 -12.8 4.311 9.254 9.254 0 0 1 -14.565-7.825 9.339 9.339 0 0 1 8.851-8.989 9.243 9.243 0 0 1 5.571 1.575 24.19 24.19 0 0 0 13.5 4.417z" fill="#f6b863"/><path d="m70.708 64.393.208-.025 12.878-12.168a8.989 8.989 0 0 0 1.524-11.182 1.355 1.355 0 0 0 -.081-.14l-.23-.368-.579-.916-24.51 22.88 3.571 3.656.936-1a4.787 4.787 0 0 1 6.283-.737z" fill="#eeefee"/><path d="m51.143 79.335 12.347-13.2-3.571-3.656-13.258 12.375a3.171 3.171 0 1 0 4.481 4.482z" fill="#575b6d"/><g fill="#dbd8dd"><circle cx="49.42" cy="76.686" r="1.054" transform="matrix(.412 -.911 .911 .412 -40.81 90.161)"/><circle cx="53.668" cy="72.402" r="1.054" transform="matrix(.412 -.911 .911 .412 -34.406 91.511)"/><circle cx="57.916" cy="68.118" r="1.054" transform="matrix(.412 -.911 .911 .412 -28.003 92.862)"/></g><ellipse cx="89.713" cy="64.449" fill="#eeefee" rx="4.815" ry="4.81" transform="matrix(.818 -.575 .575 .818 -20.744 63.335)"/><path d="m91.826 67.46a3.679 3.679 0 1 1 .9-5.133 3.683 3.683 0 0 1 -.9 5.133zm-4.088-5.814a3.429 3.429 0 1 0 4.787.825 3.433 3.433 0 0 0 -4.787-.825z" fill="#bbbbcd"/><path d="m91.141 66.485a2.487 2.487 0 1 1 .613-3.471 2.49 2.49 0 0 1 -.613 3.471zm-2.717-3.864a2.237 2.237 0 1 0 3.126.536 2.239 2.239 0 0 0 -3.126-.536z" fill="#bbbbcd"/><path d="m90.4 65.423a1.19 1.19 0 1 1 .3-1.663 1.191 1.191 0 0 1 -.3 1.663zm-1.225-1.742a.94.94 0 1 0 1.317.223.941.941 0 0 0 -1.321-.223z" fill="#bbbbcd"/><ellipse cx="78.08" cy="75.487" fill="#eeefee" rx="4.815" ry="4.81" transform="matrix(.818 -.575 .575 .818 -29.211 58.652)"/><path d="m80.192 78.5a3.679 3.679 0 1 1 .9-5.133 3.683 3.683 0 0 1 -.9 5.133zm-4.092-5.815a3.429 3.429 0 1 0 4.787.825 3.433 3.433 0 0 0 -4.787-.825z" fill="#bbbbcd"/><path d="m79.507 77.523a2.487 2.487 0 1 1 .613-3.471 2.49 2.49 0 0 1 -.613 3.471zm-2.717-3.864a2.237 2.237 0 1 0 3.126.536 2.239 2.239 0 0 0 -3.126-.536z" fill="#bbbbcd"/><path d="m78.762 76.461a1.19 1.19 0 1 1 .3-1.663 1.191 1.191 0 0 1 -.3 1.663zm-1.225-1.742a.94.94 0 1 0 1.317.223.941.941 0 0 0 -1.317-.223z" fill="#bbbbcd"/><ellipse cx="91.485" cy="78.246" fill="#eeefee" rx="4.815" ry="4.81" transform="matrix(.818 -.575 .575 .818 -28.358 66.865)"/><path d="m93.6 81.257a3.679 3.679 0 1 1 .9-5.133 3.683 3.683 0 0 1 -.9 5.133zm-4.088-5.814a3.429 3.429 0 1 0 4.787.825 3.433 3.433 0 0 0 -4.79-.825z" fill="#bbbbcd"/><path d="m92.912 80.282a2.487 2.487 0 1 1 .613-3.471 2.49 2.49 0 0 1 -.613 3.471zm-2.712-3.864a2.237 2.237 0 1 0 3.126.536 2.239 2.239 0 0 0 -3.126-.536z" fill="#bbbbcd"/><path d="m92.167 79.22a1.19 1.19 0 1 1 .3-1.663 1.191 1.191 0 0 1 -.3 1.663zm-1.225-1.742a.94.94 0 1 0 1.317.223.941.941 0 0 0 -1.317-.223z" fill="#bbbbcd"/></g></svg>